<mxfile host="app.diagrams.net" modified="2023-06-06T05:40:05.179Z" agent="Mozilla/5.0 (Windows NT 10.0; Win64; x64) AppleWebKit/537.36 (KHTML, like Gecko) Chrome/114.0.0.0 Safari/537.36" etag="DRsIGUFjWCuL7NstEB8j" version="21.3.7" type="github">
  <diagram name="Page-1" id="8Bz7Xf53lrPkdPWlknVL">
    <mxGraphModel dx="1050" dy="549" grid="1" gridSize="10" guides="1" tooltips="1" connect="1" arrows="1" fold="1" page="1" pageScale="1" pageWidth="1169" pageHeight="827" math="0" shadow="0">
      <root>
        <mxCell id="0" />
        <mxCell id="1" parent="0" />
        <mxCell id="LRd90EozyaWt_7bNhSl1-15" style="edgeStyle=orthogonalEdgeStyle;rounded=0;orthogonalLoop=1;jettySize=auto;html=1;exitX=0.5;exitY=1;exitDx=0;exitDy=0;entryX=0.444;entryY=-0.007;entryDx=0;entryDy=0;entryPerimeter=0;" parent="1" source="LRd90EozyaWt_7bNhSl1-1" target="LRd90EozyaWt_7bNhSl1-3" edge="1">
          <mxGeometry relative="1" as="geometry">
            <Array as="points">
              <mxPoint x="143" y="142" />
            </Array>
          </mxGeometry>
        </mxCell>
        <mxCell id="LRd90EozyaWt_7bNhSl1-1" value="&amp;lt;&amp;lt;class&amp;gt;&amp;gt;&lt;br&gt;FacadePatternClient" style="swimlane;whiteSpace=wrap;html=1;startSize=30;" parent="1" vertex="1">
          <mxGeometry x="55" y="60" width="200" height="82" as="geometry" />
        </mxCell>
        <mxCell id="LRd90EozyaWt_7bNhSl1-2" value="+main(): void" style="text;html=1;align=center;verticalAlign=middle;resizable=0;points=[];autosize=1;strokeColor=none;fillColor=none;" parent="LRd90EozyaWt_7bNhSl1-1" vertex="1">
          <mxGeometry y="36" width="90" height="30" as="geometry" />
        </mxCell>
        <mxCell id="LRd90EozyaWt_7bNhSl1-14" style="edgeStyle=orthogonalEdgeStyle;rounded=0;orthogonalLoop=1;jettySize=auto;html=1;exitX=1;exitY=0.5;exitDx=0;exitDy=0;" parent="1" source="LRd90EozyaWt_7bNhSl1-3" target="LRd90EozyaWt_7bNhSl1-9" edge="1">
          <mxGeometry relative="1" as="geometry" />
        </mxCell>
        <mxCell id="LRd90EozyaWt_7bNhSl1-3" value="&amp;lt;&amp;lt;class&amp;gt;&amp;gt;&lt;br&gt;MenuKeeper" style="swimlane;whiteSpace=wrap;html=1;startSize=30;" parent="1" vertex="1">
          <mxGeometry x="50" y="270" width="210" height="200" as="geometry" />
        </mxCell>
        <mxCell id="fh7zXn2cQJfPCeZB97qp-70" value="-classicCheesecake :&amp;nbsp; BakeryMenu" style="text;html=1;align=center;verticalAlign=middle;resizable=0;points=[];autosize=1;strokeColor=none;fillColor=none;" parent="LRd90EozyaWt_7bNhSl1-3" vertex="1">
          <mxGeometry x="-5" y="30" width="210" height="30" as="geometry" />
        </mxCell>
        <mxCell id="fh7zXn2cQJfPCeZB97qp-71" value="- cheesecakeMango : BakeryMenu" style="text;html=1;align=center;verticalAlign=middle;resizable=0;points=[];autosize=1;strokeColor=none;fillColor=none;" parent="LRd90EozyaWt_7bNhSl1-3" vertex="1">
          <mxGeometry x="-10" y="50" width="210" height="30" as="geometry" />
        </mxCell>
        <mxCell id="fh7zXn2cQJfPCeZB97qp-72" value="- cheesecakeChocolate : BakeryMenu" style="text;html=1;align=center;verticalAlign=middle;resizable=0;points=[];autosize=1;strokeColor=none;fillColor=none;" parent="LRd90EozyaWt_7bNhSl1-3" vertex="1">
          <mxGeometry x="-10" y="70" width="230" height="30" as="geometry" />
        </mxCell>
        <mxCell id="fh7zXn2cQJfPCeZB97qp-73" value="+MenuKeeper()" style="text;html=1;align=center;verticalAlign=middle;resizable=0;points=[];autosize=1;strokeColor=none;fillColor=none;" parent="LRd90EozyaWt_7bNhSl1-3" vertex="1">
          <mxGeometry x="-5" y="109" width="110" height="30" as="geometry" />
        </mxCell>
        <mxCell id="fh7zXn2cQJfPCeZB97qp-74" value="+cheesecakeClassicMenu() : void" style="text;html=1;align=center;verticalAlign=middle;resizable=0;points=[];autosize=1;strokeColor=none;fillColor=none;" parent="LRd90EozyaWt_7bNhSl1-3" vertex="1">
          <mxGeometry x="-5" y="130" width="200" height="30" as="geometry" />
        </mxCell>
        <mxCell id="fh7zXn2cQJfPCeZB97qp-76" value="+cheesecakeMango() : void" style="text;html=1;align=center;verticalAlign=middle;resizable=0;points=[];autosize=1;strokeColor=none;fillColor=none;" parent="LRd90EozyaWt_7bNhSl1-3" vertex="1">
          <mxGeometry x="-5" y="150" width="170" height="30" as="geometry" />
        </mxCell>
        <mxCell id="fh7zXn2cQJfPCeZB97qp-77" value="+cheesecakeChocolate() : void" style="text;html=1;align=center;verticalAlign=middle;resizable=0;points=[];autosize=1;strokeColor=none;fillColor=none;" parent="LRd90EozyaWt_7bNhSl1-3" vertex="1">
          <mxGeometry x="-5" y="170" width="190" height="30" as="geometry" />
        </mxCell>
        <mxCell id="LRd90EozyaWt_7bNhSl1-4" value="&amp;lt;&amp;lt;interface&amp;gt;&amp;gt;&lt;br&gt;BakeryMenu" style="swimlane;whiteSpace=wrap;html=1;startSize=30;" parent="1" vertex="1">
          <mxGeometry x="630" y="40" width="200" height="200" as="geometry" />
        </mxCell>
        <mxCell id="LRd90EozyaWt_7bNhSl1-12" style="edgeStyle=orthogonalEdgeStyle;rounded=0;orthogonalLoop=1;jettySize=auto;html=1;exitX=0.5;exitY=0;exitDx=0;exitDy=0;" parent="1" source="LRd90EozyaWt_7bNhSl1-5" edge="1">
          <mxGeometry relative="1" as="geometry">
            <mxPoint x="720" y="240" as="targetPoint" />
          </mxGeometry>
        </mxCell>
        <mxCell id="LRd90EozyaWt_7bNhSl1-5" value="&amp;lt;&amp;lt;class&amp;gt;&amp;gt;&lt;br&gt;CheesecakeClassic" style="swimlane;whiteSpace=wrap;html=1;startSize=30;" parent="1" vertex="1">
          <mxGeometry x="870" y="350" width="200" height="260" as="geometry" />
        </mxCell>
        <mxCell id="LRd90EozyaWt_7bNhSl1-11" style="edgeStyle=orthogonalEdgeStyle;rounded=0;orthogonalLoop=1;jettySize=auto;html=1;exitX=0.5;exitY=0;exitDx=0;exitDy=0;" parent="1" source="LRd90EozyaWt_7bNhSl1-6" edge="1">
          <mxGeometry relative="1" as="geometry">
            <mxPoint x="720" y="240" as="targetPoint" />
          </mxGeometry>
        </mxCell>
        <mxCell id="LRd90EozyaWt_7bNhSl1-6" value="&amp;lt;&amp;lt;class&amp;gt;&amp;gt;&lt;br&gt;CheesecakeChocolate" style="swimlane;whiteSpace=wrap;html=1;startSize=30;" parent="1" vertex="1">
          <mxGeometry x="620" y="350" width="200" height="260" as="geometry" />
        </mxCell>
        <mxCell id="LRd90EozyaWt_7bNhSl1-10" style="edgeStyle=orthogonalEdgeStyle;rounded=0;orthogonalLoop=1;jettySize=auto;html=1;exitX=0.5;exitY=0;exitDx=0;exitDy=0;" parent="1" source="LRd90EozyaWt_7bNhSl1-7" edge="1">
          <mxGeometry relative="1" as="geometry">
            <mxPoint x="720" y="240" as="targetPoint" />
          </mxGeometry>
        </mxCell>
        <mxCell id="LRd90EozyaWt_7bNhSl1-7" value="&amp;lt;&amp;lt;class&amp;gt;&amp;gt;&lt;br&gt;CheesecakeMango" style="swimlane;whiteSpace=wrap;html=1;startSize=30;" parent="1" vertex="1">
          <mxGeometry x="385" y="350" width="200" height="260" as="geometry" />
        </mxCell>
        <mxCell id="LRd90EozyaWt_7bNhSl1-9" value="" style="swimlane;startSize=0;" parent="1" vertex="1">
          <mxGeometry x="370" y="10" width="730" height="660" as="geometry" />
        </mxCell>
        <mxCell id="fh7zXn2cQJfPCeZB97qp-8" value="+action5(): void" style="text;html=1;align=center;verticalAlign=middle;resizable=0;points=[];autosize=1;strokeColor=none;fillColor=none;" parent="LRd90EozyaWt_7bNhSl1-9" vertex="1">
          <mxGeometry x="10" y="510" width="110" height="30" as="geometry" />
        </mxCell>
        <mxCell id="fh7zXn2cQJfPCeZB97qp-7" value="+action4(): void" style="text;html=1;align=center;verticalAlign=middle;resizable=0;points=[];autosize=1;strokeColor=none;fillColor=none;" parent="LRd90EozyaWt_7bNhSl1-9" vertex="1">
          <mxGeometry x="10" y="480" width="110" height="30" as="geometry" />
        </mxCell>
        <mxCell id="fh7zXn2cQJfPCeZB97qp-6" value="+action3(): void" style="text;html=1;align=center;verticalAlign=middle;resizable=0;points=[];autosize=1;strokeColor=none;fillColor=none;" parent="LRd90EozyaWt_7bNhSl1-9" vertex="1">
          <mxGeometry x="10" y="450" width="110" height="30" as="geometry" />
        </mxCell>
        <mxCell id="fh7zXn2cQJfPCeZB97qp-5" value="+action2(): void" style="text;html=1;align=center;verticalAlign=middle;resizable=0;points=[];autosize=1;strokeColor=none;fillColor=none;" parent="LRd90EozyaWt_7bNhSl1-9" vertex="1">
          <mxGeometry x="10" y="420" width="110" height="30" as="geometry" />
        </mxCell>
        <mxCell id="fh7zXn2cQJfPCeZB97qp-4" value="+action(): void" style="text;html=1;align=center;verticalAlign=middle;resizable=0;points=[];autosize=1;strokeColor=none;fillColor=none;" parent="LRd90EozyaWt_7bNhSl1-9" vertex="1">
          <mxGeometry x="250" y="360" width="100" height="30" as="geometry" />
        </mxCell>
        <mxCell id="fh7zXn2cQJfPCeZB97qp-3" value="+action(): void" style="text;html=1;align=center;verticalAlign=middle;resizable=0;points=[];autosize=1;strokeColor=none;fillColor=none;" parent="LRd90EozyaWt_7bNhSl1-9" vertex="1">
          <mxGeometry x="15" y="360" width="100" height="30" as="geometry" />
        </mxCell>
        <mxCell id="fh7zXn2cQJfPCeZB97qp-9" value="+action1(): void" style="text;html=1;align=center;verticalAlign=middle;resizable=0;points=[];autosize=1;strokeColor=none;fillColor=none;" parent="LRd90EozyaWt_7bNhSl1-9" vertex="1">
          <mxGeometry x="10" y="389" width="110" height="30" as="geometry" />
        </mxCell>
        <mxCell id="fh7zXn2cQJfPCeZB97qp-10" value="+action6(): void" style="text;html=1;align=center;verticalAlign=middle;resizable=0;points=[];autosize=1;strokeColor=none;fillColor=none;" parent="LRd90EozyaWt_7bNhSl1-9" vertex="1">
          <mxGeometry x="10" y="540" width="110" height="30" as="geometry" />
        </mxCell>
        <mxCell id="fh7zXn2cQJfPCeZB97qp-19" value="+action6(): void" style="text;html=1;align=center;verticalAlign=middle;resizable=0;points=[];autosize=1;strokeColor=none;fillColor=none;" parent="LRd90EozyaWt_7bNhSl1-9" vertex="1">
          <mxGeometry x="245" y="540" width="110" height="30" as="geometry" />
        </mxCell>
        <mxCell id="fh7zXn2cQJfPCeZB97qp-17" value="+action5(): void" style="text;html=1;align=center;verticalAlign=middle;resizable=0;points=[];autosize=1;strokeColor=none;fillColor=none;" parent="LRd90EozyaWt_7bNhSl1-9" vertex="1">
          <mxGeometry x="245" y="510" width="110" height="30" as="geometry" />
        </mxCell>
        <mxCell id="fh7zXn2cQJfPCeZB97qp-18" value="+action4(): void" style="text;html=1;align=center;verticalAlign=middle;resizable=0;points=[];autosize=1;strokeColor=none;fillColor=none;" parent="LRd90EozyaWt_7bNhSl1-9" vertex="1">
          <mxGeometry x="245" y="480" width="110" height="30" as="geometry" />
        </mxCell>
        <mxCell id="fh7zXn2cQJfPCeZB97qp-16" value="+action2(): void" style="text;html=1;align=center;verticalAlign=middle;resizable=0;points=[];autosize=1;strokeColor=none;fillColor=none;" parent="LRd90EozyaWt_7bNhSl1-9" vertex="1">
          <mxGeometry x="245" y="420" width="110" height="30" as="geometry" />
        </mxCell>
        <mxCell id="fh7zXn2cQJfPCeZB97qp-15" value="+action3(): void" style="text;html=1;align=center;verticalAlign=middle;resizable=0;points=[];autosize=1;strokeColor=none;fillColor=none;" parent="LRd90EozyaWt_7bNhSl1-9" vertex="1">
          <mxGeometry x="245" y="450" width="110" height="30" as="geometry" />
        </mxCell>
        <mxCell id="fh7zXn2cQJfPCeZB97qp-14" value="+action1(): void" style="text;html=1;align=center;verticalAlign=middle;resizable=0;points=[];autosize=1;strokeColor=none;fillColor=none;" parent="LRd90EozyaWt_7bNhSl1-9" vertex="1">
          <mxGeometry x="245" y="389" width="110" height="30" as="geometry" />
        </mxCell>
        <mxCell id="fh7zXn2cQJfPCeZB97qp-26" value="+action(): void" style="text;html=1;align=center;verticalAlign=middle;resizable=0;points=[];autosize=1;strokeColor=none;fillColor=none;" parent="LRd90EozyaWt_7bNhSl1-9" vertex="1">
          <mxGeometry x="500" y="360" width="100" height="30" as="geometry" />
        </mxCell>
        <mxCell id="fh7zXn2cQJfPCeZB97qp-23" value="+action1(): void" style="text;html=1;align=center;verticalAlign=middle;resizable=0;points=[];autosize=1;strokeColor=none;fillColor=none;" parent="LRd90EozyaWt_7bNhSl1-9" vertex="1">
          <mxGeometry x="495" y="390" width="110" height="30" as="geometry" />
        </mxCell>
        <mxCell id="fh7zXn2cQJfPCeZB97qp-22" value="+action2(): void" style="text;html=1;align=center;verticalAlign=middle;resizable=0;points=[];autosize=1;strokeColor=none;fillColor=none;" parent="LRd90EozyaWt_7bNhSl1-9" vertex="1">
          <mxGeometry x="495" y="420" width="110" height="30" as="geometry" />
        </mxCell>
        <mxCell id="fh7zXn2cQJfPCeZB97qp-21" value="+action3(): void" style="text;html=1;align=center;verticalAlign=middle;resizable=0;points=[];autosize=1;strokeColor=none;fillColor=none;" parent="LRd90EozyaWt_7bNhSl1-9" vertex="1">
          <mxGeometry x="495" y="450" width="110" height="30" as="geometry" />
        </mxCell>
        <mxCell id="fh7zXn2cQJfPCeZB97qp-20" value="+action4(): void" style="text;html=1;align=center;verticalAlign=middle;resizable=0;points=[];autosize=1;strokeColor=none;fillColor=none;" parent="LRd90EozyaWt_7bNhSl1-9" vertex="1">
          <mxGeometry x="495" y="480" width="110" height="30" as="geometry" />
        </mxCell>
        <mxCell id="fh7zXn2cQJfPCeZB97qp-25" value="+action5(): void" style="text;html=1;align=center;verticalAlign=middle;resizable=0;points=[];autosize=1;strokeColor=none;fillColor=none;" parent="LRd90EozyaWt_7bNhSl1-9" vertex="1">
          <mxGeometry x="495" y="510" width="110" height="30" as="geometry" />
        </mxCell>
        <mxCell id="fh7zXn2cQJfPCeZB97qp-24" value="+action6(): void" style="text;html=1;align=center;verticalAlign=middle;resizable=0;points=[];autosize=1;strokeColor=none;fillColor=none;" parent="LRd90EozyaWt_7bNhSl1-9" vertex="1">
          <mxGeometry x="495" y="540" width="110" height="30" as="geometry" />
        </mxCell>
        <mxCell id="fh7zXn2cQJfPCeZB97qp-29" value="+action7(): void" style="text;html=1;align=center;verticalAlign=middle;resizable=0;points=[];autosize=1;strokeColor=none;fillColor=none;" parent="LRd90EozyaWt_7bNhSl1-9" vertex="1">
          <mxGeometry x="245" y="570" width="110" height="30" as="geometry" />
        </mxCell>
        <mxCell id="fh7zXn2cQJfPCeZB97qp-28" value="+action7(): void" style="text;html=1;align=center;verticalAlign=middle;resizable=0;points=[];autosize=1;strokeColor=none;fillColor=none;" parent="LRd90EozyaWt_7bNhSl1-9" vertex="1">
          <mxGeometry x="495" y="570" width="110" height="30" as="geometry" />
        </mxCell>
        <mxCell id="fh7zXn2cQJfPCeZB97qp-27" value="+action7(): void" style="text;html=1;align=center;verticalAlign=middle;resizable=0;points=[];autosize=1;strokeColor=none;fillColor=none;" parent="LRd90EozyaWt_7bNhSl1-9" vertex="1">
          <mxGeometry x="10" y="570" width="110" height="30" as="geometry" />
        </mxCell>
        <mxCell id="fh7zXn2cQJfPCeZB97qp-30" value="+action(): void" style="text;html=1;align=center;verticalAlign=middle;resizable=0;points=[];autosize=1;strokeColor=none;fillColor=none;" parent="LRd90EozyaWt_7bNhSl1-9" vertex="1">
          <mxGeometry x="270" y="50" width="100" height="30" as="geometry" />
        </mxCell>
        <mxCell id="fh7zXn2cQJfPCeZB97qp-31" value="+action1(): void" style="text;html=1;align=center;verticalAlign=middle;resizable=0;points=[];autosize=1;strokeColor=none;fillColor=none;" parent="LRd90EozyaWt_7bNhSl1-9" vertex="1">
          <mxGeometry x="265" y="70" width="110" height="30" as="geometry" />
        </mxCell>
        <mxCell id="fh7zXn2cQJfPCeZB97qp-33" value="+action2(): void" style="text;html=1;align=center;verticalAlign=middle;resizable=0;points=[];autosize=1;strokeColor=none;fillColor=none;" parent="LRd90EozyaWt_7bNhSl1-9" vertex="1">
          <mxGeometry x="265" y="90" width="110" height="30" as="geometry" />
        </mxCell>
        <mxCell id="fh7zXn2cQJfPCeZB97qp-34" value="+action3(): void" style="text;html=1;align=center;verticalAlign=middle;resizable=0;points=[];autosize=1;strokeColor=none;fillColor=none;" parent="LRd90EozyaWt_7bNhSl1-9" vertex="1">
          <mxGeometry x="265" y="110" width="110" height="30" as="geometry" />
        </mxCell>
        <mxCell id="fh7zXn2cQJfPCeZB97qp-35" value="+action4(): void" style="text;html=1;align=center;verticalAlign=middle;resizable=0;points=[];autosize=1;strokeColor=none;fillColor=none;" parent="LRd90EozyaWt_7bNhSl1-9" vertex="1">
          <mxGeometry x="260" y="130" width="110" height="30" as="geometry" />
        </mxCell>
        <mxCell id="fh7zXn2cQJfPCeZB97qp-67" value="+action5(): void" style="text;html=1;align=center;verticalAlign=middle;resizable=0;points=[];autosize=1;strokeColor=none;fillColor=none;" parent="LRd90EozyaWt_7bNhSl1-9" vertex="1">
          <mxGeometry x="260" y="150" width="110" height="30" as="geometry" />
        </mxCell>
        <mxCell id="fh7zXn2cQJfPCeZB97qp-69" value="+action6(): void" style="text;html=1;align=center;verticalAlign=middle;resizable=0;points=[];autosize=1;strokeColor=none;fillColor=none;" parent="LRd90EozyaWt_7bNhSl1-9" vertex="1">
          <mxGeometry x="260" y="170" width="110" height="30" as="geometry" />
        </mxCell>
        <mxCell id="fh7zXn2cQJfPCeZB97qp-68" value="+action7(): void" style="text;html=1;align=center;verticalAlign=middle;resizable=0;points=[];autosize=1;strokeColor=none;fillColor=none;" parent="LRd90EozyaWt_7bNhSl1-9" vertex="1">
          <mxGeometry x="260" y="190" width="110" height="30" as="geometry" />
        </mxCell>
        <mxCell id="LRd90EozyaWt_7bNhSl1-16" value="uses" style="text;html=1;align=center;verticalAlign=middle;resizable=0;points=[];autosize=1;strokeColor=none;fillColor=none;" parent="1" vertex="1">
          <mxGeometry x="90" y="200" width="50" height="30" as="geometry" />
        </mxCell>
        <mxCell id="LRd90EozyaWt_7bNhSl1-17" value="keeps" style="text;html=1;align=center;verticalAlign=middle;resizable=0;points=[];autosize=1;strokeColor=none;fillColor=none;" parent="1" vertex="1">
          <mxGeometry x="250" y="360" width="60" height="30" as="geometry" />
        </mxCell>
        <mxCell id="fh7zXn2cQJfPCeZB97qp-1" value="" style="endArrow=none;html=1;rounded=0;exitX=0;exitY=0.5;exitDx=0;exitDy=0;entryX=1;entryY=0.5;entryDx=0;entryDy=0;" parent="1" source="LRd90EozyaWt_7bNhSl1-3" target="LRd90EozyaWt_7bNhSl1-3" edge="1">
          <mxGeometry width="50" height="50" relative="1" as="geometry">
            <mxPoint x="580" y="230" as="sourcePoint" />
            <mxPoint x="630" y="180" as="targetPoint" />
          </mxGeometry>
        </mxCell>
        <mxCell id="fh7zXn2cQJfPCeZB97qp-2" value="implements" style="text;html=1;align=center;verticalAlign=middle;resizable=0;points=[];autosize=1;strokeColor=none;fillColor=none;" parent="1" vertex="1">
          <mxGeometry x="720" y="258" width="80" height="30" as="geometry" />
        </mxCell>
      </root>
    </mxGraphModel>
  </diagram>
</mxfile>
